<svg width="28" height="23" viewBox="0 0 28 23" fill="none" xmlns="http://www.w3.org/2000/svg">
<path d="M27.6148 4.02568C25.7866 3.64242 24.3576 2.21345 23.9744 0.385203C23.9274 0.160774 23.7294 0 23.5 0C23.2707 0 23.0727 0.160774 23.0257 0.385232C22.6424 2.21345 21.2135 3.64239 19.3853 4.02559C19.1608 4.07263 19 4.27061 19 4.49996C19 4.7293 19.1608 4.92728 19.3853 4.97432C21.2135 5.35758 22.6424 6.78652 23.0256 8.61474C23.0726 8.8392 23.2706 9 23.5 9C23.7293 9 23.9273 8.83923 23.9743 8.61474C24.3576 6.78652 25.7866 5.35758 27.6148 4.97441C27.8393 4.92737 28.0001 4.72942 28.0001 4.50004C28 4.2707 27.8393 4.07272 27.6148 4.02568Z" fill="#4A7FD9"/>
<path d="M12.6155 16.2304C13.7791 16.2304 14.7749 15.8161 15.6034 14.988C16.4318 14.1598 16.846 13.1635 16.846 12V5.23089C16.846 4.06736 16.4321 3.07147 15.6034 2.24289C14.7749 1.4145 13.7791 1 12.6155 1C11.452 1 10.4561 1.4145 9.62757 2.24289C8.79899 3.07133 8.38477 4.06736 8.38477 5.23089V12C8.38477 13.1635 8.79917 14.1598 9.62757 14.988C10.456 15.8161 11.452 16.2304 12.6155 16.2304Z" fill="#4A7FD9"/>
<path d="M19.9794 9.71269C19.8124 9.5452 19.6136 9.46143 19.3845 9.46143C19.1555 9.46143 18.9572 9.5452 18.7895 9.71269C18.6222 9.88014 18.5385 10.0784 18.5385 10.3075V11.9999C18.5385 13.6306 17.9588 15.0253 16.7998 16.1843C15.641 17.3434 14.2461 17.923 12.6154 17.923C10.9847 17.923 9.58995 17.3434 8.43083 16.1843C7.27185 15.0256 6.6924 13.6306 6.6924 11.9999V10.3075C6.6924 10.0784 6.60863 9.88014 6.44123 9.71269C6.27373 9.5452 6.07563 9.46143 5.84632 9.46143C5.617 9.46143 5.41867 9.5452 5.25126 9.71269C5.08372 9.88014 5 10.0784 5 10.3075V11.9999C5 13.9478 5.65016 15.6424 6.9501 17.0834C8.25009 18.5244 9.85645 19.3506 11.7692 19.562V21.3074H8.38466C8.15549 21.3074 7.9572 21.3913 7.78975 21.5588C7.62225 21.7261 7.53848 21.9245 7.53848 22.1537C7.53848 22.3825 7.62225 22.5812 7.78975 22.7486C7.9572 22.9159 8.15549 22.9999 8.38466 22.9999H16.8459C17.0751 22.9999 17.2736 22.916 17.4408 22.7486C17.6085 22.5813 17.6923 22.3825 17.6923 22.1537C17.6923 21.9245 17.6085 21.7262 17.4408 21.5588C17.2737 21.3913 17.0751 21.3074 16.8459 21.3074H13.4618V19.562C15.3742 19.3506 16.9804 18.5244 18.2806 17.0834C19.5807 15.6424 20.231 13.9478 20.231 11.9999V10.3075C20.231 10.0785 20.1471 9.88032 19.9794 9.71269Z" fill="#4A7FD9"/>
</svg>
