<svg class="circle left-icon" viewBox="0 0 15 15" fill="none" xmlns="http://www.w3.org/2000/svg">
<path d="M0.5 7.5C0.5 3.6408 3.6408 0.5 7.5 0.5C11.3592 0.5 14.5 3.6408 14.5 7.5C14.5 11.3592 11.3592 14.5 7.5 14.5C3.6408 14.5 0.5 11.3592 0.5 7.5Z" stroke="var(--primary-color)"/>
<path d="M6.8985 10.2819L11.6917 5.52631C11.9925 5.22556 11.9925 4.75563 11.6917 4.45488C11.391 4.15412 10.921 4.15412 10.6203 4.45488L6.33459 8.74059L4.3233 6.89849C4.02255 6.61654 3.55264 6.63533 3.27069 6.93608C3.0075 7.23684 3.0263 7.70676 3.32705 7.98871L5.86465 10.3007C6.1654 10.5827 6.61654 10.5639 6.8985 10.2819Z" fill="var(--primary-color)"/>
</svg>
