<svg width="15" height="15" viewBox="0 0 15 15" fill="none" xmlns="http://www.w3.org/2000/svg">
<path d="M7 4.5C7 4.22386 7.22388 4 7.5 4C7.77612 4 8 4.22386 8 4.5V7H10.5C10.7761 7 11 7.22386 11 7.5C11 7.77614 10.7761 8 10.5 8H8V10.5C8 10.7761 7.77612 11 7.5 11C7.22388 11 7 10.7761 7 10.5V8H4.5C4.22388 8 4 7.77614 4 7.5C4 7.22386 4.22388 7 4.5 7H7V4.5Z" fill="#4A7FD9"/>
<path fill-rule="evenodd" clip-rule="evenodd" d="M7.5 15C11.6422 15 15 11.6421 15 7.5C15 3.35786 11.6422 0 7.5 0C3.35785 0 0 3.35786 0 7.5C0 11.6421 3.35785 15 7.5 15ZM7.5 14C11.0898 14 14 11.0899 14 7.5C14 3.91015 11.0898 1 7.5 1C3.91016 1 1 3.91015 1 7.5C1 11.0899 3.91016 14 7.5 14Z" fill="#4A7FD9"/>
</svg>
