<svg width="17" height="16" viewBox="0 0 17 16" fill="none" xmlns="http://www.w3.org/2000/svg">
<path d="M8.95126 1.1067L10.5511 4.45952C10.7698 4.91778 11.2055 5.23431 11.7089 5.30067L15.392 5.78617C15.809 5.84113 15.9759 6.35497 15.6709 6.64452L12.9766 9.20218C12.6083 9.55176 12.4419 10.0639 12.5343 10.5632L13.2108 14.2161C13.2873 14.6296 12.8502 14.9472 12.4806 14.7466L9.21552 12.9744C8.76925 12.7322 8.23075 12.7322 7.78448 12.9744L4.5194 14.7466C4.14977 14.9472 3.71268 14.6296 3.78925 14.2161L4.46565 10.5632C4.5581 10.0639 4.3917 9.55176 4.02344 9.20218L1.3291 6.64451C1.02409 6.35497 1.19104 5.84113 1.608 5.78617L5.29112 5.30067C5.79452 5.23431 6.23018 4.91778 6.44885 4.45952L8.04874 1.10669C8.22986 0.727135 8.77014 0.727133 8.95126 1.1067Z" fill="#4A7FD9" stroke="#4A7FD9"/>
</svg>
